HIERARCHY
ROOT Hips
{
	OFFSET 0.00000 0.00000 0.00000
	CHANNELS 6 Xposition Yposition Zposition Yrotation Zrotation Xrotation 
	JOINT Lumbar
	{
		OFFSET 0 0 0
		CHANNELS 3 Zrotation Xrotation Yrotation
		JOINT Neck
		{
			OFFSET 0.00 0.2701 0.00
			CHANNELS 3 Zrotation Xrotation Yrotation
			End Site
			{
				OFFSET 0.00 0.1379 0.00
			}
		}
		JOINT RightShoulder
		{
			OFFSET 0.0119 0.2289 0.1181
			CHANNELS 3 Zrotation Xrotation Yrotation
			JOINT RightElbow
			{
				OFFSET 0.00 -0.1475 0.00
				CHANNELS 2 Zrotation Yrotation
				JOINT RightWrist
				{
					OFFSET 0.00 -0.1605 0.00
					CHANNELS 2 Zrotation Xrotation
					End Site
					{
						OFFSET 0.0040 -0.1068 0.0006
					}
				}
			}
		}
		JOINT LeftShoulder
		{
			OFFSET 0.0119 0.2289 -0.1181
			CHANNELS 3 Zrotation Xrotation Yrotation
			JOINT LeftElbow
			{
				OFFSET 0.00 -0.1475 0.00
				CHANNELS 2 Zrotation Yrotation
				JOINT LeftWrist
				{
					OFFSET 0.00 -0.1605 0.00
					CHANNELS 2 Zrotation Xrotation
					End Site
					{
						OFFSET 0.0040 -0.1068 -0.0006
					}
				}
			}
		}
	}
	JOINT RightHip
	{
		OFFSET 0.0316 -0.0424 0.0458
		CHANNELS 3 Zrotation Xrotation Yrotation
		JOINT RightKnee
		{
			OFFSET 0.00 -0.2438 0.00
			CHANNELS 1 Zrotation
			JOINT RightAnkle
			{
				OFFSET 0.00 -0.2449 0.00
				CHANNELS 3 Zrotation Xrotation Yrotation
				End Site
				{
					OFFSET 0.1237 -0.0542 0.0051
				}
			}
		}
	}
	JOINT LeftHip
	{
		OFFSET 0.0316 -0.0424 -0.0458
		CHANNELS 3 Zrotation Xrotation Yrotation
		JOINT LeftKnee
		{
			OFFSET 0.00 -0.2438 0.00
			CHANNELS 1 Zrotation
			JOINT LeftAnkle
			{
				OFFSET 0.00 -0.2449 0.00
				CHANNELS 3 Zrotation Xrotation Yrotation
				End Site
				{
					OFFSET 0.1237 -0.0542 -0.0051
				}
			}
		}
	}
}
MOTION
Frames: 20
Frame Time: 0.02
-0.92112 0.57939 -0.10578 214.77026 0 -3.67979 -56.06391 0.67308 51.13868 -73.79681 43.14316 5.2388 156.50985 -14.95998 44.60806 5.32854 82.69926 -1.45005 -5.54711 147.00747 -3.50447 -10.86556 9.34139 -80.10531 -5.06667 4.05987 12.05133 5.89825 2.08857 -11.73675 -6.45168 -3.39329 -11.79467 7.98867 -1.10205 -7.12419 -6.73029 -2.64581 3.30254 4.914
-0.92174 0.57942 -0.10571 214.86166 0 -3.6692 -56.06391 0.66493 51.20278 -73.79681 43.14316 5.20292 156.52581 -14.9591 46.15778 5.32854 82.73335 -1.31996 -5.90391 147.09072 -3.66298 -11.14178 9.35924 -80.06638 -5.05926 4.06586 12.08949 5.91362 2.0857 -11.93624 -6.33564 -3.42282 -11.88773 8.02359 -1.10591 -7.10534 -6.89032 -2.54333 3.30404 4.82703
-0.92249 0.57949 -0.1056 214.98884 0 -3.66105 -56.06391 0.68195 51.26331 -73.79681 43.14316 5.15898 156.44392 -14.98273 47.99859 5.32855 82.78965 -1.19431 -6.16246 147.1474 -3.82556 -11.38468 9.38117 -80.00785 -5.05693 4.06433 12.10835 5.92545 2.0184 -12.12828 -6.21407 -3.45786 -11.95343 7.99019 -1.10356 -7.21836 -6.93445 -2.49364 3.30334 4.83751
-0.92318 0.57955 -0.10551 215.09731 0 -3.65181 -56.06391 0.68469 51.32223 -73.79681 43.14316 5.10547 156.38848 -14.98126 49.71149 5.32855 82.83482 -1.06577 -6.43058 147.21456 -3.97375 -11.65395 9.40083 -79.96189 -5.05247 4.0662 12.13289 5.93945 1.98107 -12.31901 -6.09536 -3.48946 -12.03024 7.98744 -1.10319 -7.26761 -7.03271 -2.41772 3.30408 4.80122
-0.92384 0.57959 -0.10542 215.21624 0 -3.64239 -56.06391 0.69874 51.39478 -73.79681 43.14316 5.10595 156.408 -15.04031 51.4 5.32855 82.8816 -0.93863 -6.84503 147.28954 -4.17476 -11.88083 9.42233 -79.9007 -5.0471 4.0684 12.17138 5.95108 1.94261 -12.53115 -5.97465 -3.52481 -12.11417 7.98844 -1.10643 -7.3257 -7.12845 -2.34933 3.30288 4.768
-0.92461 0.57966 -0.10531 215.32171 0 -3.63391 -56.06391 0.69531 51.43837 -73.79681 43.14316 4.99407 156.24906 -14.9788 53.20302 5.32856 82.93369 -0.81083 -6.93569 147.34115 -4.26746 -12.18426 9.44078 -79.86639 -5.04484 4.06799 12.17604 5.96689 1.8906 -12.69687 -5.85679 -3.55392 -12.17618 7.96452 -1.10074 -7.40074 -7.20072 -2.27853 3.30539 4.75592
-0.92567 0.5798 -0.10512 215.38281 0 -3.62798 -56.06391 0.63964 51.39945 -73.79681 43.14316 4.55799 155.61537 -14.57492 55.34641 5.32858 82.96513 -0.67629 -6.11073 147.33909 -4.05129 -12.73111 9.45158 -79.91237 -5.05039 4.06275 12.09016 5.99411 1.81591 -12.7291 -5.75057 -3.56219 -12.18442 7.88961 -1.07064 -7.47444 -7.23404 -2.18797 3.31683 4.75812
-0.92684 0.57995 -0.1049 215.42891 0 -3.62285 -56.06391 0.56531 51.33203 -73.79681 43.14316 4.0122 154.80686 -14.04934 57.57962 5.3286 83.00584 -0.54195 -4.97134 147.31357 -3.72747 -13.35155 9.45881 -79.98582 -5.05882 4.05504 11.97102 6.02585 1.72977 -12.71575 -5.64709 -3.56439 -12.17141 7.79151 -1.0319 -7.56374 -7.24772 -2.09341 3.33238 4.78205
-0.92798 0.5801 -0.10469 215.48074 0 -3.61701 -56.06391 0.49812 51.27993 -73.79681 43.14316 3.52707 154.0821 -13.58139 59.71081 5.32862 83.06305 -0.4103 -4.00558 147.29573 -3.45867 -13.92188 9.46656 -80.04589 -5.06566 4.04808 11.8683 6.05612 1.6492 -12.72774 -5.54079 -3.57083 -12.16768 7.70297 -0.99796 -7.65812 -7.27139 -2.00119 3.34727 4.81111
-0.92905 0.58024 -0.10449 215.53807 0 -3.61266 -56.06391 0.43712 51.21802 -73.79681 43.14316 2.9958 153.33491 -13.10418 62.10882 5.32864 83.03729 -0.26697 -2.90719 147.28931 -3.16447 -14.56033 9.47925 -80.10914 -5.07386 4.04241 11.75978 6.08372 1.56464 -12.72047 -5.44075 -3.57124 -12.16413 7.61611 -0.96037 -7.70863 -7.28632 -1.90886 3.35707 4.78326
-0.93028 0.58039 -0.10427 215.58035 0 -3.60542 -56.06391 0.35891 51.16944 -73.79681 43.14316 2.53498 152.59524 -12.61745 63.97046 5.32865 83.18163 -0.14804 -2.01101 147.25419 -2.89729 -15.07619 9.48056 -80.17246 -5.07982 4.03357 11.65524 6.11814 1.4868 -12.742 -5.32861 -3.58268 -12.15613 7.52126 -0.92808 -7.84872 -7.31663 -1.81476 3.37837 4.87389
-0.9319 0.58057 -0.10399 215.58104 0 -3.58937 -56.06391 0.23408 51.168 -73.79681 43.14316 2.29343 151.91111 -12.13095 64.31217 5.32864 83.8332 -0.09601 -1.75612 147.14323 -2.73358 -15.22318 9.45293 -80.22992 -5.07903 4.01669 11.57367 6.1688 1.4275 -12.85921 -5.18062 -3.62611 -12.13556 7.40889 -0.91572 -8.26596 -7.39165 -1.71997 3.43136 5.32104
-0.93368 0.58075 -0.10369 215.56781 0 -3.57041 -56.06391 0.0933 51.18036 -73.79681 43.14316 2.12712 151.24291 -11.63991 64.11251 5.32861 84.64825 -0.06863 -1.715 147.00493 -2.60048 -15.24651 9.41366 -80.28646 -5.07579 3.99672 11.49666 6.22635 1.37588 -13.00618 -5.02062 -3.68077 -12.11231 7.28978 -0.90854 -8.76679 -7.48374 -1.62286 3.49563 5.88031
-0.93539 0.58093 -0.10341 215.56291 0 -3.55327 -56.06391 -0.03814 51.18423 -73.79681 43.14316 1.92769 150.57272 -11.15251 64.17057 5.32859 85.36206 -0.03016 -1.57252 146.88059 -2.45142 -15.33495 9.37862 -80.34313 -5.07357 3.97813 11.41505 6.28186 1.32329 -13.13614 -4.86742 -3.7303 -12.09417 7.1749 -0.89685 -9.20551 -7.57048 -1.5242 3.55412 6.3643
-0.93707 0.58111 -0.10311 215.54818 0 -3.53436 -56.06391 -0.17977 51.19648 -73.79681 43.14316 1.7195 149.87281 -10.65276 64.18336 5.32857 86.18933 0.00896 -1.43662 146.74824 -2.30641 -15.38911 9.34788 -80.40208 -5.07194 3.95955 11.34272 6.33335 1.26092 -13.27877 -4.70907 -3.77995 -12.05927 7.05443 -0.89356 -9.74301 -7.64693 -1.43569 3.61548 6.94943
-0.93885 0.5813 -0.10283 215.55188 0 -3.51806 -56.06391 -0.30282 51.19488 -73.79681 43.14316 1.54935 149.24259 -10.18107 64.1597 5.32855 86.81975 0.04066 -1.34211 146.62726 -2.16273 -15.48337 9.30552 -80.45555 -5.06832 3.94027 11.25285 6.39425 1.21928 -13.40323 -4.55803 -3.83184 -12.05837 6.94405 -0.87463 -10.09903 -7.74834 -1.32646 3.67353 7.35321
-0.94086 0.5815 -0.10257 215.60083 0 -3.51279 -56.06391 -0.37827 51.1524 -73.79681 43.14315 1.46238 148.78771 -9.77331 64.17487 5.32854 86.85934 0.05957 -1.30945 146.53709 -2.00674 -15.72639 9.23366 -80.49519 -5.06101 3.91961 11.11146 6.48402 1.24742 -13.46603 -4.43449 -3.8894 -12.15684 6.86575 -0.80693 -9.89321 -7.92179 -1.15225 3.71919 7.20261
-0.94296 0.5817 -0.10233 215.67058 0 -3.50965 -56.06391 -0.43302 51.09559 -73.79681 43.14315 1.41251 148.40609 -9.39763 64.17019 5.32855 86.69625 0.07151 -1.3126 146.46091 -1.85344 -16.012 9.15066 -80.52895 -5.05153 3.89843 10.95289 6.58216 1.29374 -13.51065 -4.31787 -3.94852 -12.28889 6.79756 -0.72416 -9.50917 -8.11863 -0.95874 3.76117 6.87024
-0.94501 0.5819 -0.10208 215.73683 0 -3.50349 -56.06391 -0.49209 51.04492 -73.79681 43.14316 1.34816 148.00005 -9.01705 64.16955 5.32854 86.63093 0.0856 -1.30116 146.38304 -1.70469 -16.27294 9.07283 -80.56465 -5.04221 3.8776 10.80352 6.67342 1.32213 -13.56645 -4.19518 -4.00535 -12.4024 6.72304 -0.65118 -9.2332 -8.29997 -0.77966 3.80518 6.63837
-0.94708 0.58211 -0.10181 215.77746 0 -3.50591 -56.06391 -0.57297 50.99598 -73.79681 43.14315 1.27539 147.55565 -8.59397 64.17129 5.32855 86.54833 0.10331 -1.29024 146.28397 -1.53148 -16.55298 8.99378 -80.60368 -5.03626 3.85609 10.64803 6.77784 1.3908 -13.61049 -4.08446 -4.06886 -12.52934 6.6552 -0.56598 -8.84639 -8.50203 -0.577 3.84818 6.33557
